<?xml version="1.0" encoding="UTF-8"?>
<svg xmlns="http://www.w3.org/2000/svg" xmlns:xlink="http://www.w3.org/1999/xlink" width="32px" height="32px" viewBox="0 0 32 32" version="1.1">
<g id="surface1">
<path style=" stroke:none;fill-rule:nonzero;fill:rgb(1.960784%,71.764706%,6.666667%);fill-opacity:1;" d="M 32 26.964844 C 32 29.746094 29.746094 32 26.960938 32 L 5.035156 32 C 2.253906 32 0 29.746094 0 26.964844 L 0 5.039062 C 0 2.253906 2.253906 0 5.035156 0 L 26.960938 0 C 29.746094 0 32 2.253906 32 5.039062 Z M 32 26.964844 "/>
<path style=" stroke:none;fill-rule:nonzero;fill:rgb(100%,100%,100%);fill-opacity:1;" d="M 6.828125 6.503906 L 25.167969 6.503906 L 25.167969 8.566406 L 6.828125 8.566406 Z M 23.574219 18.796875 L 23.574219 10.722656 L 8.425781 10.722656 L 8.425781 18.796875 Z M 10.621094 12.785156 L 21.398438 12.785156 L 21.398438 16.734375 L 10.621094 16.734375 Z M 20.296875 23.453125 C 20.957031 22.445312 21.578125 21.273438 22.152344 19.945312 L 19.949219 19.140625 C 19.378906 20.714844 18.710938 22.15625 17.949219 23.453125 L 14.117188 23.453125 C 13.480469 21.769531 12.761719 20.332031 11.957031 19.140625 L 9.929688 19.945312 C 10.765625 21.199219 11.441406 22.367188 11.957031 23.453125 L 6.3125 23.453125 L 6.3125 25.496094 L 25.6875 25.496094 L 25.6875 23.453125 Z M 20.296875 23.453125 "/>
</g>
</svg>
